name Run_300 02_newCOP3_v24.mot
datacolumns 19
datarows 27
range 0.05000000 0.07600000
endheader
                time	   R_ground_force_vx	   R_ground_force_vy	   R_ground_force_vz	   R_ground_force_px	   R_ground_force_py	   R_ground_force_pz	   L_ground_force_vx	   L_ground_force_vy	   L_ground_force_vz	   L_ground_force_px	   L_ground_force_py	   L_ground_force_pz	   R_ground_torque_x	   R_ground_torque_y	   R_ground_torque_z	   L_ground_torque_x	   L_ground_torque_y	   L_ground_torque_z	
          0.05000000	         37.82085000	         75.62534300	         20.50639700	          0.52008100	          0.00000000	         -0.28534400	          0.00000000	          0.00000000	          0.00000000	          0.00000000	          0.00000000	          0.00000000	          0.00000000	         -7.45846600	          0.00000000	          0.00000000	          0.00000000	          0.00000000	
          0.05100000	         36.81356800	         72.81533100	         19.85329800	          0.52346300	          0.00000000	         -0.28533800	          0.00000000	          0.00000000	          0.00000000	          0.00000000	          0.00000000	          0.00000000	          0.00000000	         -7.14679600	          0.00000000	          0.00000000	          0.00000000	          0.00000000	
          0.05200000	         35.76337800	         69.92669700	         19.17889200	          0.52712500	          0.00000000	         -0.28532300	          0.00000000	          0.00000000	          0.00000000	          0.00000000	          0.00000000	          0.00000000	          0.00000000	         -6.83723500	          0.00000000	          0.00000000	          0.00000000	          0.00000000	
          0.05300000	         34.67195500	         66.97902700	         18.48730700	          0.53105200	          0.00000000	         -0.28529400	          0.00000000	          0.00000000	          0.00000000	          0.00000000	          0.00000000	          0.00000000	          0.00000000	         -6.53028200	          0.00000000	          0.00000000	          0.00000000	          0.00000000	
          0.05400000	         33.54059200	         63.98998300	         17.78253400	          0.53522600	          0.00000000	         -0.28524600	          0.00000000	          0.00000000	          0.00000000	          0.00000000	          0.00000000	          0.00000000	          0.00000000	         -6.22642500	          0.00000000	          0.00000000	          0.00000000	          0.00000000	
          0.05500000	         32.37073100	         60.97599400	         17.06843000	          0.53963000	          0.00000000	         -0.28517500	          0.00000000	          0.00000000	          0.00000000	          0.00000000	          0.00000000	          0.00000000	          0.00000000	         -5.92613800	          0.00000000	          0.00000000	          0.00000000	          0.00000000	
          0.05600000	         31.16431400	         57.95261000	         16.34872100	          0.54424500	          0.00000000	         -0.28507500	          0.00000000	          0.00000000	          0.00000000	          0.00000000	          0.00000000	          0.00000000	          0.00000000	         -5.62988000	          0.00000000	          0.00000000	          0.00000000	          0.00000000	
          0.05700000	         29.92398600	         54.93462800	         15.62697600	          0.54905500	          0.00000000	         -0.28493900	          0.00000000	          0.00000000	          0.00000000	          0.00000000	          0.00000000	          0.00000000	          0.00000000	         -5.33809400	          0.00000000	          0.00000000	          0.00000000	          0.00000000	
          0.05800000	         28.65320600	         51.93615000	         14.90660700	          0.55404500	          0.00000000	         -0.28476300	          0.00000000	          0.00000000	          0.00000000	          0.00000000	          0.00000000	          0.00000000	          0.00000000	         -5.05120100	          0.00000000	          0.00000000	          0.00000000	          0.00000000	
          0.05900000	         27.35625300	         48.97054700	         14.19084000	          0.55920100	          0.00000000	         -0.28454000	          0.00000000	          0.00000000	          0.00000000	          0.00000000	          0.00000000	          0.00000000	          0.00000000	         -4.76960600	          0.00000000	          0.00000000	          0.00000000	          0.00000000	
          0.06000000	         26.03820800	         46.05039600	         13.48270400	          0.56451000	          0.00000000	         -0.28426600	          0.00000000	          0.00000000	          0.00000000	          0.00000000	          0.00000000	          0.00000000	          0.00000000	         -4.49368600	          0.00000000	          0.00000000	          0.00000000	          0.00000000	
          0.06100000	         24.70485500	         43.18740800	         12.78501800	          0.56996400	          0.00000000	         -0.28393600	          0.00000000	          0.00000000	          0.00000000	          0.00000000	          0.00000000	          0.00000000	          0.00000000	         -4.22379900	          0.00000000	          0.00000000	          0.00000000	          0.00000000	
          0.06200000	         23.36255100	         40.39234900	         12.10037200	          0.57555500	          0.00000000	         -0.28354400	          0.00000000	          0.00000000	          0.00000000	          0.00000000	          0.00000000	          0.00000000	          0.00000000	         -3.96027500	          0.00000000	          0.00000000	          0.00000000	          0.00000000	
          0.06300000	         22.01808400	         37.67498000	         11.43112700	          0.58127700	          0.00000000	         -0.28308800	          0.00000000	          0.00000000	          0.00000000	          0.00000000	          0.00000000	          0.00000000	          0.00000000	         -3.70341600	          0.00000000	          0.00000000	          0.00000000	          0.00000000	
          0.06400000	         20.67849700	         35.04399100	         10.77939600	          0.58712600	          0.00000000	         -0.28256200	          0.00000000	          0.00000000	          0.00000000	          0.00000000	          0.00000000	          0.00000000	          0.00000000	         -3.45349800	          0.00000000	          0.00000000	          0.00000000	          0.00000000	
          0.06500000	         19.35092700	         32.50695400	         10.14705000	          0.59310000	          0.00000000	         -0.28196400	          0.00000000	          0.00000000	          0.00000000	          0.00000000	          0.00000000	          0.00000000	          0.00000000	         -3.21076800	          0.00000000	          0.00000000	          0.00000000	          0.00000000	
          0.06600000	         18.04242700	         30.07032200	          9.53571300	          0.59919600	          0.00000000	         -0.28129000	          0.00000000	          0.00000000	          0.00000000	          0.00000000	          0.00000000	          0.00000000	          0.00000000	         -2.97544300	          0.00000000	          0.00000000	          0.00000000	          0.00000000	
          0.06700000	         16.75981500	         27.73940800	          8.94676400	          0.60541400	          0.00000000	         -0.28053700	          0.00000000	          0.00000000	          0.00000000	          0.00000000	          0.00000000	          0.00000000	          0.00000000	         -2.74770900	          0.00000000	          0.00000000	          0.00000000	          0.00000000	
          0.06800000	         15.50953000	         25.51840400	          8.38134300	          0.61175200	          0.00000000	         -0.27970100	          0.00000000	          0.00000000	          0.00000000	          0.00000000	          0.00000000	          0.00000000	          0.00000000	         -2.52772200	          0.00000000	          0.00000000	          0.00000000	          0.00000000	
          0.06900000	         14.29751300	         23.41040200	          7.84035800	          0.61820600	          0.00000000	         -0.27878000	          0.00000000	          0.00000000	          0.00000000	          0.00000000	          0.00000000	          0.00000000	          0.00000000	         -2.31560500	          0.00000000	          0.00000000	          0.00000000	          0.00000000	
          0.07000000	         13.12910300	         21.41744000	          7.32449600	          0.62477400	          0.00000000	         -0.27776700	          0.00000000	          0.00000000	          0.00000000	          0.00000000	          0.00000000	          0.00000000	          0.00000000	         -2.11145200	          0.00000000	          0.00000000	          0.00000000	          0.00000000	
          0.07100000	         12.00896500	         19.54055000	          6.83423200	          0.63144900	          0.00000000	         -0.27665800	          0.00000000	          0.00000000	          0.00000000	          0.00000000	          0.00000000	          0.00000000	          0.00000000	         -1.91532400	          0.00000000	          0.00000000	          0.00000000	          0.00000000	
          0.07200000	         10.94103500	         17.77981800	          6.36984300	          0.63822000	          0.00000000	         -0.27544300	          0.00000000	          0.00000000	          0.00000000	          0.00000000	          0.00000000	          0.00000000	          0.00000000	         -1.72725200	          0.00000000	          0.00000000	          0.00000000	          0.00000000	
          0.07300000	          9.92849400	         16.13444300	          5.93142000	          0.64507500	          0.00000000	         -0.27411100	          0.00000000	          0.00000000	          0.00000000	          0.00000000	          0.00000000	          0.00000000	          0.00000000	         -1.54723400	          0.00000000	          0.00000000	          0.00000000	          0.00000000	
          0.07400000	          8.97375700	         14.60281600	          5.51888600	          0.65199400	          0.00000000	         -0.27264800	          0.00000000	          0.00000000	          0.00000000	          0.00000000	          0.00000000	          0.00000000	          0.00000000	         -1.37524100	          0.00000000	          0.00000000	          0.00000000	          0.00000000	
          0.07500000	          8.07848000	         13.18258700	          5.13201000	          0.65895100	          0.00000000	         -0.27103200	          0.00000000	          0.00000000	          0.00000000	          0.00000000	          0.00000000	          0.00000000	          0.00000000	         -1.21121200	          0.00000000	          0.00000000	          0.00000000	          0.00000000	
          0.07600000	          7.24359400	         11.87074300	          4.77041700	          0.66591200	          0.00000000	         -0.26923600	          0.00000000	          0.00000000	          0.00000000	          0.00000000	          0.00000000	          0.00000000	          0.00000000	         -1.05505800	          0.00000000	          0.00000000	          0.00000000	          0.00000000	
